{"title":"Spectre.2015.720p.BRRip.XviD.AC3-RARBG","uid":13241652,"size":4297119615,"categoryP":"video","categoryS":"movies","magnet":"?xt=urn:btih:efd771479fdcfb3f8148ec29dadeb554193646e1&amp;dn=Spectre.2015.720p.BRRip.XviD.AC3-RARBG&amp;tr=udp%3A%2F%2Ftracker.leechers-paradise.org%3A6969&amp;tr=udp%3A%2F%2Fzer0day.ch%3A1337&amp;tr=udp%3A%2F%2Fopen.demonii.com%3A1337&amp;tr=udp%3A%2F%2Ftracker.coppersurfer.tk%3A6969&amp;tr=udp%3A%2F%2Fexodus.desync.com%3A6969","seeders":0,"leechers":3,"uploader":null,"files":7,"time":1453060468,"description":"Video\r\nID                                       : 0\r\nFormat                                   : MPEG-4 Visual\r\nFormat profile                           :   \r\nFormat settings, BVOP                    : No\r\nFormat settings, QPel                    : No\r\nFormat settings, GMC                     : No warppoints\r\nFormat settings, Matrix                  : Default (H.263)\r\nCodec ID                                 : XVID\r\nCodec ID/Hint                            : XviD\r\nDuration                                 : 2h 28mn\r\nBit rate                                 : 3 210 Kbps\r\nWidth                                    : 1 280 pixels\r\nHeight                                   : 536 pixels\r\nDisplay aspect ratio                     : 2.40:1\r\nFrame rate                               : 23.976 fps\r\nColor space                              : YUV\r\nChroma subsampling                       : 4:2:0\r\nBit depth                                : 8 bits\r\nScan type                                : Progressive\r\nCompression mode                         : Lossy\r\nBits/(Pixel*Frame)                       : 0.195\r\nStream size                              : 3.32 GiB (83%)\r\nWriting library                          : Lavc56.60.100\r\n\r\nAudio\r\nID                                       : 1\r\nFormat                                   : AC-3\r\nFormat/Info                              : Audio Coding 3\r\nMode extension                           : CM (complete main)\r\nFormat settings, Endianness              : Big\r\nCodec ID                                 : 2000\r\nDuration                                 : 2h 28mn\r\nBit rate mode                            : Constant\r\nBit rate                                 : 640 Kbps\r\nChannel(s)                               : 6 channels\r\nChannel positions                        : Front: L C R, Side: L R, LFE\r\nSampling rate                            : 48.0 KHz\r\nFrame rate                               : 31.250 fps (1536 spf)\r\nCompression mode                         : Lossy\r\nStream size                              : 678 MiB (17%)\r\nAlignment                                : Aligned on interleaves\r\nInterleave, duration                     : 42 ms (1.00 video frame)\r\nInterleave, preload duration             : 512 ms","torrent":{"xt":"urn:btih:efd771479fdcfb3f8148ec29dadeb554193646e1","amp;dn":"Spectre.2015.720p.BRRip.XviD.AC3-RARBG","amp;tr":["udp%3A%2F%2Ftracker.leechers-paradise.org%3A6969","udp%3A%2F%2Fzer0day.ch%3A1337","udp%3A%2F%2Fopen.demonii.com%3A1337","udp%3A%2F%2Ftracker.coppersurfer.tk%3A6969","udp%3A%2F%2Fexodus.desync.com%3A6969"],"infoHash":"efd771479fdcfb3f8148ec29dadeb554193646e1","infoHashBuffer":{"type":"Buffer","data":[239,215,113,71,159,220,251,63,129,72,236,41,218,222,181,84,25,54,70,225]},"announce":[],"urlList":[]}}